<svg xmlns="http://www.w3.org/2000/svg" xmlns:xlink="http://www.w3.org/1999/xlink" width="500" zoomAndPan="magnify" viewBox="0 0 375 374.999991" height="500" preserveAspectRatio="xMidYMid meet" version="1.0"><defs><g/><clipPath id="id1"><path d="M 11 18 L 361.953125 18 L 361.953125 248.074219 L 11 248.074219 Z M 11 18 " clip-rule="nonzero"/></clipPath><clipPath id="id2"><path d="M 216.515625 212 L 293.375 212 L 293.375 265.464844 L 216.515625 265.464844 Z M 216.515625 212 " clip-rule="nonzero"/></clipPath></defs><g clip-path="url(#id1)"><path fill="#000000" d="M 133.105469 28.199219 C 64.632812 52.074219 14.328125 115.792969 11.285156 192.519531 C 10.519531 211.785156 12.804688 230.472656 17.683594 248.109375 L 18.261719 247.914062 C 13.445312 230.53125 11.246094 212.097656 12.101562 193.078125 C 12.285156 188.9375 12.621094 184.839844 13.085938 180.78125 C 27.121094 183.035156 41.40625 184.476562 55.886719 185.101562 C 57.210938 201.191406 60.222656 216.988281 64.667969 232.175781 L 65.085938 232.035156 C 60.652344 216.914062 57.707031 201.175781 56.484375 185.128906 C 68.363281 185.621094 80.378906 185.558594 92.492188 184.898438 C 100.597656 184.457031 108.613281 183.753906 116.558594 182.808594 C 118.890625 192.589844 121.570312 202.300781 124.574219 211.855469 L 124.8125 211.777344 C 121.816406 202.238281 119.140625 192.539062 116.832031 182.769531 C 141.8125 179.777344 165.976562 174.328125 189.089844 166.683594 L 201.265625 201.191406 L 189.667969 166.488281 C 212.21875 158.984375 233.773438 149.398438 254.105469 137.953125 C 257.914062 146.480469 261.492188 155.285156 264.800781 164.292969 L 265.042969 164.210938 C 261.726562 155.1875 258.140625 146.367188 254.34375 137.820312 C 270.710938 128.589844 286.292969 118.164062 300.960938 106.660156 C 308.535156 118.730469 315.089844 131.742188 320.421875 145.429688 L 320.867188 145.277344 C 315.511719 131.53125 308.96875 118.445312 301.425781 106.289062 C 311.355469 98.476562 320.875 90.167969 329.933594 81.410156 C 342.996094 96.210938 353.589844 113.15625 361.101562 131.628906 L 361.695312 131.429688 C 335.636719 67.40625 273.9375 21.144531 200.261719 18.234375 C 181.726562 17.503906 163.734375 19.570312 146.679688 24.054688 C 145.21875 24.402344 143.773438 24.777344 142.339844 25.1875 C 141.226562 25.453125 140.136719 25.785156 139.070312 26.171875 C 138.984375 26.203125 138.902344 26.242188 138.820312 26.273438 C 138.058594 26.523438 137.296875 26.765625 136.542969 27.027344 C 136.394531 27.082031 136.25 27.144531 136.101562 27.195312 C 135.101562 27.527344 134.097656 27.847656 133.105469 28.195312 Z M 139.15625 29.3125 C 139.59375 29.175781 140.027344 29.042969 140.464844 28.90625 L 147.808594 49.707031 C 136.972656 53.1875 126.054688 55.882812 115.113281 57.824219 C 120.554688 43.300781 128.738281 33.449219 139.15625 29.316406 Z M 143.359375 28.03125 C 143.625 27.953125 143.894531 27.890625 144.160156 27.8125 C 151.691406 26.230469 160.214844 27.34375 169.59375 31.527344 C 172.917969 33.011719 176.257812 34.847656 179.605469 36.996094 C 170.617188 41.328125 161.285156 45.171875 151.613281 48.453125 C 151.183594 48.597656 150.753906 48.726562 150.328125 48.871094 Z M 126.6875 34.34375 C 121.089844 40.054688 116.550781 48.085938 113.222656 58.140625 C 106.277344 59.320312 99.3125 60.1875 92.371094 60.761719 C 102.246094 49.5625 113.8125 40.613281 126.6875 34.34375 Z M 157.078125 25.050781 C 167.042969 23.640625 177.476562 23.640625 188.269531 25.191406 C 191.597656 25.667969 194.898438 26.296875 198.179688 27.046875 C 192.722656 30.277344 187.109375 33.324219 181.355469 36.15625 C 177.160156 33.230469 172.964844 30.800781 168.808594 28.90625 C 164.734375 27.050781 160.820312 25.777344 157.078125 25.050781 Z M 108.734375 42.019531 C 101.5625 47.425781 94.949219 53.792969 89.019531 61.027344 C 85.726562 61.257812 82.441406 61.410156 79.15625 61.507812 C 88.328125 54.105469 98.234375 47.566406 108.734375 42.019531 Z M 178.039062 21.539062 C 185.554688 20.867188 193.1875 20.632812 200.921875 20.902344 C 203.121094 20.976562 205.316406 21.097656 207.496094 21.25 C 205.359375 22.648438 203.195312 24.023438 201.011719 25.355469 C 196.570312 24.171875 192.074219 23.230469 187.550781 22.550781 C 184.347656 22.070312 181.175781 21.746094 178.039062 21.539062 Z M 76.285156 63.867188 C 79.882812 63.808594 83.488281 63.675781 87.097656 63.460938 C 80.339844 72.132812 74.5 81.960938 69.734375 92.78125 C 63.046875 92.53125 56.402344 92.039062 49.808594 91.3125 C 57.648438 81.273438 66.527344 72.070312 76.285156 63.867188 Z M 211.269531 21.554688 C 226.34375 22.917969 240.828125 26.085938 254.53125 30.847656 C 249.660156 34.835938 244.640625 38.683594 239.484375 42.34375 C 228.199219 35.285156 216.320312 29.804688 204.058594 26.207031 C 206.496094 24.695312 208.902344 23.144531 211.269531 21.554688 Z M 90.222656 63.269531 C 90.226562 63.265625 90.234375 63.269531 90.238281 63.265625 C 97.628906 62.726562 105.035156 61.847656 112.441406 60.628906 C 109.75 69.554688 107.957031 79.953125 107.152344 91.625 C 95.222656 92.804688 83.351562 93.199219 71.605469 92.839844 C 76.730469 81.859375 82.984375 71.941406 90.222656 63.269531 Z M 201.417969 27.832031 C 214.117188 31.101562 226.417969 36.363281 238.089844 43.332031 C 228.601562 49.980469 218.636719 56.035156 208.25 61.484375 C 200.125 51.882812 191.804688 43.832031 183.476562 37.695312 C 189.628906 34.632812 195.617188 31.34375 201.417969 27.832031 Z M 114.226562 60.328125 C 125.699219 58.355469 137.167969 55.550781 148.5625 51.886719 L 159.007812 81.480469 C 150.574219 83.980469 141.949219 86.117188 133.128906 87.835938 C 124.773438 89.464844 116.417969 90.683594 108.097656 91.535156 C 109.105469 79.679688 111.195312 69.207031 114.222656 60.328125 Z M 181.847656 38.476562 C 190.441406 44.351562 199.042969 52.304688 207.433594 61.921875 C 192.773438 69.546875 177.269531 75.910156 161.011719 80.871094 L 151.042969 51.0625 C 151.46875 50.917969 151.890625 50.792969 152.3125 50.648438 C 162.542969 47.179688 172.390625 43.09375 181.847656 38.476562 Z M 48.910156 92.46875 C 55.636719 93.175781 62.425781 93.632812 69.25 93.851562 C 63.722656 106.660156 59.703125 120.835938 57.386719 136.085938 C 46.671875 135.511719 36.042969 134.386719 25.535156 132.75 C 31.570312 118.265625 39.472656 104.757812 48.910156 92.46875 Z M 255.621094 31.226562 C 268.789062 35.894531 281.203125 42.039062 292.695312 49.4375 C 285.886719 55.929688 278.761719 62.128906 271.355469 68.019531 C 261.695312 58.285156 251.261719 49.804688 240.253906 42.832031 C 245.515625 39.125 250.648438 35.265625 255.621094 31.226562 Z M 71.105469 93.898438 C 82.992188 94.199219 95.007812 93.753906 107.09375 92.503906 C 106.273438 105.179688 106.613281 119.335938 108.214844 134.730469 C 91.5 136.527344 74.867188 136.972656 58.425781 136.144531 C 60.949219 120.851562 65.265625 106.671875 71.105469 93.898438 Z M 238.871094 43.800781 C 250.109375 50.597656 260.734375 58.976562 270.570312 68.640625 C 258.441406 78.222656 245.550781 86.972656 231.941406 94.761719 C 224.535156 82.601562 216.734375 71.574219 208.730469 62.054688 C 219.222656 56.578125 229.277344 50.46875 238.871094 43.800781 Z M 108.035156 92.394531 C 116.105469 91.535156 124.207031 90.335938 132.324219 88.753906 C 141.5 86.960938 150.46875 84.734375 159.246094 82.113281 L 172.925781 120.886719 C 165.761719 123.214844 158.472656 125.304688 151.046875 127.148438 C 136.9375 130.648438 122.789062 133.136719 108.710938 134.671875 C 107.214844 119.210938 107.023438 105.03125 108.035156 92.394531 Z M 207.925781 62.46875 C 216.0625 71.867188 224 82.835938 231.519531 94.992188 C 213.609375 105.203125 194.476562 113.777344 174.253906 120.449219 L 161.234375 81.511719 C 177.5625 76.503906 193.167969 70.105469 207.925781 62.46875 Z M 24.902344 134.339844 C 35.542969 135.921875 46.316406 136.992188 57.175781 137.496094 C 55.347656 150.171875 54.703125 163.578125 55.382812 177.5625 C 55.488281 179.703125 55.628906 181.828125 55.792969 183.957031 C 41.402344 183.253906 27.195312 181.703125 13.238281 179.359375 C 15.164062 163.625 19.152344 148.527344 24.902344 134.339844 Z M 293.703125 50.074219 C 306.65625 58.539062 318.398438 68.621094 328.667969 80.007812 C 319.742188 88.78125 310.355469 97.089844 300.5625 104.925781 C 292.175781 91.609375 282.59375 79.417969 272.078125 68.714844 C 279.578125 62.808594 286.796875 56.585938 293.703125 50.074219 Z M 58.207031 137.535156 C 74.746094 138.25 91.492188 137.683594 108.320312 135.777344 C 109.105469 143.089844 110.167969 150.675781 111.53125 158.515625 C 112.886719 166.328125 114.503906 174.144531 116.339844 181.917969 C 108.871094 182.789062 101.328125 183.425781 93.714844 183.839844 C 81.160156 184.523438 68.714844 184.558594 56.410156 183.976562 C 56.273438 182.046875 56.140625 180.105469 56.054688 178.167969 C 55.421875 163.96875 56.1875 150.367188 58.207031 137.535156 Z M 271.292969 69.351562 C 281.945312 79.933594 291.644531 92.027344 300.097656 105.289062 C 285.550781 116.890625 270.097656 127.402344 253.835938 136.703125 C 247.246094 121.980469 240.019531 108.101562 232.347656 95.433594 C 246.050781 87.636719 259.058594 78.921875 271.292969 69.351562 Z M 108.796875 135.722656 C 122.554688 134.140625 136.355469 131.671875 150.152344 128.246094 C 157.96875 126.308594 165.640625 124.082031 173.171875 121.613281 L 188.773438 165.824219 C 165.714844 173.507812 141.582031 178.949219 116.609375 181.878906 C 114.847656 174.34375 113.308594 166.769531 112.007812 159.1875 C 110.621094 151.082031 109.554688 143.253906 108.800781 135.722656 Z M 231.925781 95.667969 C 239.675781 108.265625 246.96875 122.121094 253.59375 136.839844 C 233.351562 148.398438 211.875 158.082031 189.367188 165.625 L 174.503906 121.179688 C 194.753906 114.457031 213.945312 105.867188 231.929688 95.667969 Z M 231.925781 95.667969 " fill-opacity="1" fill-rule="nonzero"/></g><g fill="#000000" fill-opacity="1"><g transform="translate(22.12902, 322.88672)"><g><path d="M 36.53125 0 L 29.40625 0 L 29.40625 -50.1875 L 1.203125 -50.1875 L 1.203125 -57.3125 L 64.734375 -57.3125 L 64.734375 -50.1875 L 36.53125 -50.1875 Z M 36.53125 0 "/></g></g></g><g fill="#000000" fill-opacity="1"><g transform="translate(88.05673, 322.88672)"><g><path d="M 73.171875 0 L 8 0 L 8 -57.34375 L 73.171875 -57.34375 L 73.171875 -50.234375 L 15.109375 -50.234375 L 15.109375 -32.203125 L 66.453125 -32.203125 L 66.453125 -25.09375 L 15.109375 -25.09375 L 15.109375 -7.109375 L 73.171875 -7.109375 Z M 73.171875 0 "/></g></g></g><g fill="#000000" fill-opacity="1"><g transform="translate(167.209944, 322.88672)"><g><path d="M 61.703125 0 L 19.015625 0 C 15.421875 0 12.351562 -1.269531 9.8125 -3.8125 C 7.269531 -6.363281 6 -9.4375 6 -13.03125 L 13.109375 -13.03125 C 13.109375 -11.40625 13.6875 -10.007812 14.84375 -8.84375 C 16 -7.6875 17.390625 -7.109375 19.015625 -7.109375 L 61.703125 -7.109375 C 63.328125 -7.109375 64.71875 -7.6875 65.875 -8.84375 C 67.03125 -10.007812 67.609375 -11.40625 67.609375 -13.03125 L 67.609375 -19.1875 C 67.609375 -20.8125 67.03125 -22.203125 65.875 -23.359375 C 64.71875 -24.515625 63.328125 -25.09375 61.703125 -25.09375 L 19.015625 -25.09375 C 15.421875 -25.09375 12.351562 -26.363281 9.8125 -28.90625 C 7.269531 -31.457031 6 -34.53125 6 -38.125 L 6 -44.28125 C 6 -47.875 7.269531 -50.941406 9.8125 -53.484375 C 12.351562 -56.035156 15.421875 -57.3125 19.015625 -57.3125 L 61.703125 -57.3125 C 65.296875 -57.3125 68.363281 -56.035156 70.90625 -53.484375 C 73.457031 -50.941406 74.734375 -47.875 74.734375 -44.28125 L 67.609375 -44.28125 C 67.609375 -45.90625 67.03125 -47.296875 65.875 -48.453125 C 64.71875 -49.609375 63.328125 -50.1875 61.703125 -50.1875 L 19.015625 -50.1875 C 17.390625 -50.1875 16 -49.609375 14.84375 -48.453125 C 13.6875 -47.296875 13.109375 -45.90625 13.109375 -44.28125 L 13.109375 -38.125 C 13.109375 -36.5 13.6875 -35.101562 14.84375 -33.9375 C 16 -32.78125 17.390625 -32.203125 19.015625 -32.203125 L 61.703125 -32.203125 C 65.296875 -32.203125 68.363281 -30.929688 70.90625 -28.390625 C 73.457031 -25.847656 74.734375 -22.78125 74.734375 -19.1875 L 74.734375 -13.03125 C 74.734375 -9.4375 73.457031 -6.363281 70.90625 -3.8125 C 68.363281 -1.269531 65.296875 0 61.703125 0 Z M 61.703125 0 "/></g></g></g><g fill="#000000" fill-opacity="1"><g transform="translate(247.921443, 322.88672)"><g><path d="M 15.109375 0 L 15.109375 -57.3125 L 8 -57.3125 L 8 0 Z M 15.109375 0 "/></g></g></g><g fill="#000000" fill-opacity="1"><g transform="translate(271.01612, 322.88672)"><g><path d="M 56.953125 0 C 61.847656 0 66.035156 -1.738281 69.515625 -5.21875 C 72.992188 -8.695312 74.734375 -12.882812 74.734375 -17.78125 L 74.734375 -57.34375 L 67.609375 -57.34375 L 67.609375 -17.78125 C 67.609375 -14.851562 66.570312 -12.34375 64.5 -10.25 C 62.425781 -8.15625 59.910156 -7.109375 56.953125 -7.109375 L 23.78125 -7.109375 C 20.84375 -7.109375 18.328125 -8.15625 16.234375 -10.25 C 14.148438 -12.34375 13.109375 -14.851562 13.109375 -17.78125 L 6 -17.78125 C 6 -12.882812 7.734375 -8.695312 11.203125 -5.21875 C 14.679688 -1.738281 18.875 0 23.78125 0 Z M 56.953125 0 "/></g></g></g><g fill="#000000" fill-opacity="1"><g transform="translate(351.727618, 322.88672)"><g><path d="M 15.109375 0 L 15.109375 -57.3125 L 8 -57.3125 L 8 0 Z M 15.109375 0 "/></g></g></g><g clip-path="url(#id2)"><path fill="#000000" d="M 216.515625 212.03125 L 216.515625 214.339844 C 216.515625 219.355469 219.402344 223.730469 222.769531 227.132812 C 223.050781 231.601562 225.980469 234.625 228.78125 236.332031 C 228.851562 236.375 228.910156 236.402344 228.980469 236.445312 C 229.160156 236.777344 229.425781 237.011719 229.777344 237.148438 C 231.214844 237.722656 232.46875 238.164062 233.660156 238.550781 C 233.8125 239.964844 234.347656 242.652344 237.488281 244.222656 C 242.355469 246.660156 244.808594 248.964844 246.039062 250.5625 C 246.65625 251.363281 246.96875 251.988281 247.125 252.382812 C 247.28125 252.777344 247.269531 252.8125 247.269531 252.8125 L 247.421875 254.089844 L 248.710938 254.167969 C 248.710938 254.167969 262.867188 255.085938 272.40625 263.035156 L 274.929688 265.136719 L 274.929688 261.855469 C 274.929688 258.277344 277.054688 255.308594 280.371094 252.898438 C 283.691406 250.492188 288.136719 248.789062 292.140625 247.988281 L 293.375 247.742188 L 293.375 246.484375 C 293.375 241.96875 290.390625 238.914062 287.640625 237.136719 C 285.367188 235.671875 283.828125 235.296875 283.117188 235.085938 C 282.960938 233.945312 282.445312 230.996094 279.839844 227.515625 C 276.667969 223.285156 270.550781 219.082031 259.597656 218.808594 C 245.035156 218.042969 237.34375 217.652344 232.101562 216.921875 C 226.847656 216.1875 223.996094 215.144531 218.640625 212.917969 Z M 219.9375 216.6875 C 223.898438 218.25 227.128906 219.332031 231.671875 219.964844 C 237.179688 220.734375 244.875 221.113281 259.476562 221.882812 L 259.519531 221.882812 C 269.734375 222.136719 274.730469 225.828125 277.375 229.359375 C 278.808594 231.273438 279.5 233.082031 279.863281 234.386719 C 277.3125 234.902344 275.746094 234.652344 274.003906 233.890625 C 272.066406 233.046875 269.855469 231.464844 266.394531 229.734375 C 259.695312 226.382812 250.332031 226.496094 250.332031 226.496094 L 245.609375 226.496094 L 249.429688 229.277344 C 249.429688 229.277344 253.585938 232.304688 257.726562 236.253906 C 259.796875 238.230469 261.851562 240.4375 263.347656 242.542969 C 264.839844 244.648438 265.707031 246.660156 265.707031 248.019531 C 265.707031 251.554688 264.71875 252.929688 263.953125 253.566406 C 263.1875 254.203125 262.632812 254.167969 262.632812 254.167969 C 262.539062 254.167969 262.449219 254.175781 262.359375 254.191406 C 256.195312 251.878906 251.03125 251.355469 249.992188 251.285156 C 249.980469 251.261719 249.988281 251.261719 249.980469 251.238281 C 249.71875 250.582031 249.261719 249.707031 248.476562 248.691406 C 246.914062 246.65625 244.058594 244.070312 238.863281 241.472656 C 237.957031 241.023438 237.410156 240.265625 237.066406 239.511719 C 240.570312 240.304688 243.394531 240.332031 247.257812 240.332031 C 247.464844 240.335938 247.664062 240.300781 247.855469 240.222656 C 248.046875 240.144531 248.214844 240.035156 248.359375 239.890625 C 248.507812 239.746094 248.621094 239.578125 248.699219 239.390625 C 248.777344 239.199219 248.820312 239 248.820312 238.796875 C 248.820312 238.589844 248.777344 238.390625 248.699219 238.203125 C 248.621094 238.011719 248.507812 237.84375 248.359375 237.699219 C 248.214844 237.554688 248.046875 237.445312 247.855469 237.367188 C 247.664062 237.292969 247.464844 237.253906 247.257812 237.257812 C 242.914062 237.257812 240.300781 237.265625 236.488281 236.214844 L 236.488281 236.019531 L 235.292969 235.757812 C 235.292969 235.757812 232.824219 235.199219 230.382812 233.710938 C 228.816406 232.753906 227.359375 231.507812 226.507812 229.804688 C 228.367188 230.609375 230.671875 231.109375 233.425781 231.109375 C 233.628906 231.113281 233.828125 231.074219 234.019531 230.996094 C 234.210938 230.921875 234.378906 230.8125 234.523438 230.667969 C 234.671875 230.523438 234.785156 230.355469 234.863281 230.164062 C 234.945312 229.976562 234.984375 229.777344 234.984375 229.570312 C 234.984375 229.367188 234.945312 229.167969 234.863281 228.976562 C 234.785156 228.789062 234.671875 228.621094 234.523438 228.476562 C 234.378906 228.332031 234.210938 228.222656 234.019531 228.144531 C 233.828125 228.066406 233.628906 228.03125 233.425781 228.035156 C 229.273438 228.035156 226.605469 226.722656 225.289062 225.410156 C 225.28125 225.40625 225.277344 225.398438 225.273438 225.394531 C 222.710938 222.898438 220.671875 219.847656 219.9375 216.6875 Z M 254.96875 229.929688 C 258.082031 230.265625 261.894531 230.921875 265.019531 232.484375 C 267.4375 233.695312 269.230469 234.863281 270.976562 235.816406 C 270.660156 235.886719 270.367188 235.996094 270.09375 236.136719 C 269.824219 236.277344 269.589844 236.449219 269.390625 236.648438 C 269.191406 236.847656 269.042969 237.066406 268.9375 237.300781 C 268.832031 237.535156 268.78125 237.777344 268.78125 238.027344 C 268.78125 238.332031 268.859375 238.625 269.015625 238.910156 C 269.171875 239.191406 269.394531 239.441406 269.679688 239.65625 C 269.96875 239.875 270.300781 240.039062 270.679688 240.15625 C 271.054688 240.273438 271.445312 240.332031 271.855469 240.332031 C 272.261719 240.332031 272.65625 240.273438 273.03125 240.15625 C 273.40625 240.039062 273.742188 239.875 274.027344 239.65625 C 274.316406 239.441406 274.539062 239.191406 274.695312 238.910156 C 274.851562 238.625 274.929688 238.332031 274.929688 238.027344 C 274.929688 237.8125 274.890625 237.601562 274.808594 237.394531 C 275.679688 237.605469 276.597656 237.714844 277.59375 237.71875 C 276.046875 239.683594 274.101562 242.0625 272.304688 243.859375 L 270.976562 245.183594 L 272.28125 246.054688 C 272.40625 246.179688 272.550781 246.277344 272.710938 246.351562 C 274.652344 247.726562 275.171875 249.410156 275.285156 250.929688 C 275.398438 252.496094 275.007812 253.683594 275.007812 253.683594 C 274.992188 253.726562 274.980469 253.773438 274.96875 253.816406 C 273.660156 255.453125 272.6875 257.300781 272.230469 259.347656 C 270.207031 257.917969 268.125 256.746094 266.082031 255.773438 C 267.550781 254.453125 268.78125 252.023438 268.78125 248.019531 C 268.78125 245.535156 267.53125 243.125 265.855469 240.765625 C 264.179688 238.402344 262.007812 236.09375 259.851562 234.035156 C 257.40625 231.699219 256.625 231.234375 254.96875 229.929688 Z M 281.496094 237.667969 C 281.664062 237.714844 283.78125 238.304688 285.976562 239.71875 C 287.589844 240.765625 288.917969 242.226562 289.597656 244.09375 C 287.28125 242.835938 284.226562 242.433594 281.292969 242.289062 C 280.019531 242.230469 278.8125 242.265625 277.671875 242.34375 C 279.550781 240.136719 280.789062 238.570312 281.496094 237.667969 Z M 278.652344 245.347656 C 279.445312 245.316406 280.289062 245.320312 281.144531 245.363281 C 283.148438 245.460938 285.210938 245.855469 286.789062 246.367188 C 283.890625 247.320312 281.027344 248.625 278.566406 250.410156 C 278.484375 250.46875 278.410156 250.535156 278.328125 250.597656 C 278.1875 249.039062 277.390625 247.253906 275.988281 245.628906 C 276.152344 245.59375 276.304688 245.554688 276.484375 245.527344 C 277.125 245.4375 277.859375 245.375 278.652344 245.347656 Z M 278.652344 245.347656 " fill-opacity="1" fill-rule="nonzero"/></g></svg>